<svg width="646" height="604" viewBox="0 0 646 604" fill="none" xmlns="http://www.w3.org/2000/svg">
<path d="M326 167V210" stroke="#0F6274" stroke-width="25" stroke-linecap="round"/>
<circle cx="166.804" cy="244.039" r="10" fill="#0F6274"/>
<circle cx="139.804" cy="229.039" r="10" fill="#0F6274"/>
<circle cx="113" cy="213.039" r="10" fill="#0F6274"/>
<circle cx="86.0005" cy="197.995" r="10" fill="#0F6274"/>
<circle cx="59.0005" cy="181.995" r="10" fill="#0F6274"/>
<circle cx="165.762" cy="285.434" r="10" transform="rotate(-24 165.762 285.434)" fill="#0F6274"/>
<circle cx="134.995" cy="282.712" r="10" transform="rotate(-24 134.995 282.712)" fill="#0F6274"/>
<circle cx="104.001" cy="278.998" r="10" transform="rotate(-24 104.001 278.998)" fill="#0F6274"/>
<circle cx="73.2162" cy="276.236" r="10" transform="rotate(-24 73.2162 276.236)" fill="#0F6274"/>
<circle cx="42.0427" cy="272.601" r="10" transform="rotate(-24 42.0427 272.601)" fill="#0F6274"/>
<circle cx="167.45" cy="328.281" r="10" fill="#0F6274"/>
<circle cx="182.345" cy="364.839" r="10" fill="#0F6274"/>
<circle cx="207.071" cy="397.043" r="10" fill="#0F6274"/>
<circle cx="239.568" cy="422.77" r="10" fill="#0F6274"/>
<circle cx="274.772" cy="433.602" r="10" fill="#0F6274"/>
<circle cx="314.04" cy="437.664" r="10" fill="#0F6274"/>
<circle cx="357.368" cy="436.31" r="10" fill="#0F6274"/>
<circle cx="400.698" cy="422.77" r="10" fill="#0F6274"/>
<circle cx="435.902" cy="397.043" r="10" fill="#0F6274"/>
<circle cx="460.275" cy="363.193" r="10" fill="#0F6274"/>
<circle cx="475.169" cy="326.635" r="10" fill="#0F6274"/>
<circle cx="479.231" cy="284.659" r="10" fill="#0F6274"/>
<circle cx="476.523" cy="243.716" r="10" fill="#0F6274"/>
<circle cx="137.294" cy="333.578" r="10" transform="rotate(-40 137.294 333.578)" fill="#0F6274"/>
<circle cx="106.969" cy="339.443" r="10" transform="rotate(-40 106.969 339.443)" fill="#0F6274"/>
<circle cx="76.1518" cy="344.415" r="10" transform="rotate(-40 76.1518 344.415)" fill="#0F6274"/>
<circle cx="45.7985" cy="350.246" r="10" transform="rotate(-40 45.7985 350.246)" fill="#0F6274"/>
<circle cx="14.8308" cy="355.345" r="10" transform="rotate(-40 14.8308 355.345)" fill="#0F6274"/>
<circle cx="152.694" cy="379.085" r="10" transform="rotate(-52 152.694 379.085)" fill="#0F6274"/>
<circle cx="124.251" cy="391.126" r="10" transform="rotate(-52 124.251 391.126)" fill="#0F6274"/>
<circle cx="95.1405" cy="402.397" r="10" transform="rotate(-52 95.1405 402.397)" fill="#0F6274"/>
<circle cx="66.6627" cy="414.411" r="10" transform="rotate(-52 66.6627 414.411)" fill="#0F6274"/>
<circle cx="37.4317" cy="425.837" r="10" transform="rotate(-52 37.4317 425.837)" fill="#0F6274"/>
<circle cx="184.784" cy="422.564" r="10" transform="rotate(-70 184.784 422.564)" fill="#0F6274"/>
<circle cx="161.454" cy="442.806" r="10" transform="rotate(-70 161.454 442.806)" fill="#0F6274"/>
<circle cx="137.252" cy="462.521" r="10" transform="rotate(-70 137.252 462.521)" fill="#0F6274"/>
<circle cx="113.881" cy="482.747" r="10" transform="rotate(-70 113.881 482.747)" fill="#0F6274"/>
<circle cx="89.6111" cy="502.646" r="10" transform="rotate(-70 89.6111 502.646)" fill="#0F6274"/>
<circle cx="227.426" cy="448.171" r="10" transform="rotate(-90 227.426 448.171)" fill="#0F6274"/>
<circle cx="212.426" cy="475.171" r="10" transform="rotate(-90 212.426 475.171)" fill="#0F6274"/>
<circle cx="196.426" cy="501.975" r="10" transform="rotate(-90 196.426 501.975)" fill="#0F6274"/>
<circle cx="181.382" cy="528.975" r="10" transform="rotate(-90 181.382 528.975)" fill="#0F6274"/>
<circle cx="165.382" cy="555.975" r="10" transform="rotate(-90 165.382 555.975)" fill="#0F6274"/>
<circle cx="272.834" cy="459.324" r="10" transform="rotate(-112 272.834 459.324)" fill="#0F6274"/>
<circle cx="269.041" cy="489.977" r="10" transform="rotate(-112 269.041 489.977)" fill="#0F6274"/>
<circle cx="264.246" cy="520.823" r="10" transform="rotate(-112 264.246 520.823)" fill="#0F6274"/>
<circle cx="260.412" cy="551.492" r="10" transform="rotate(-112 260.412 551.492)" fill="#0F6274"/>
<circle cx="255.692" cy="582.52" r="10" transform="rotate(-112 255.692 582.52)" fill="#0F6274"/>
<circle cx="315.178" cy="465.73" r="10" transform="rotate(-120 315.178 465.73)" fill="#0F6274"/>
<circle cx="315.688" cy="496.613" r="10" transform="rotate(-120 315.688 496.613)" fill="#0F6274"/>
<circle cx="315.233" cy="527.826" r="10" transform="rotate(-120 315.233 527.826)" fill="#0F6274"/>
<circle cx="315.705" cy="558.731" r="10" transform="rotate(-120 315.705 558.731)" fill="#0F6274"/>
<circle cx="315.348" cy="590.113" r="10" transform="rotate(-120 315.348 590.113)" fill="#0F6274"/>
<circle cx="363.772" cy="464.343" r="10" transform="rotate(-132 363.772 464.343)" fill="#0F6274"/>
<circle cx="370.691" cy="494.444" r="10" transform="rotate(-132 370.691 494.444)" fill="#0F6274"/>
<circle cx="376.736" cy="525.069" r="10" transform="rotate(-132 376.736 525.069)" fill="#0F6274"/>
<circle cx="383.622" cy="555.201" r="10" transform="rotate(-132 383.622 555.201)" fill="#0F6274"/>
<circle cx="389.799" cy="585.972" r="10" transform="rotate(-132 389.799 585.972)" fill="#0F6274"/>
<circle cx="412.934" cy="449.557" r="10" transform="rotate(-147 412.934 449.557)" fill="#0F6274"/>
<circle cx="427.409" cy="476.842" r="10" transform="rotate(-147 427.409 476.842)" fill="#0F6274"/>
<circle cx="441.174" cy="504.86" r="10" transform="rotate(-147 441.174 504.86)" fill="#0F6274"/>
<circle cx="455.624" cy="532.182" r="10" transform="rotate(-147 455.624 532.182)" fill="#0F6274"/>
<circle cx="469.554" cy="560.306" r="10" transform="rotate(-147 469.554 560.306)" fill="#0F6274"/>
<circle cx="454.379" cy="418.051" r="10" transform="rotate(-161 454.379 418.051)" fill="#0F6274"/>
<circle cx="475.025" cy="441.024" r="10" transform="rotate(-161 475.025 441.024)" fill="#0F6274"/>
<circle cx="495.159" cy="464.878" r="10" transform="rotate(-161 495.159 464.878)" fill="#0F6274"/>
<circle cx="515.79" cy="487.893" r="10" transform="rotate(-161 515.79 487.893)" fill="#0F6274"/>
<circle cx="536.11" cy="511.812" r="10" transform="rotate(-161 536.11 511.812)" fill="#0F6274"/>
<circle cx="485.608" cy="378.157" r="10" transform="rotate(177 485.608 378.157)" fill="#0F6274"/>
<circle cx="513.356" cy="391.724" r="10" transform="rotate(177 513.356 391.724)" fill="#0F6274"/>
<circle cx="540.96" cy="406.299" r="10" transform="rotate(177 540.96 406.299)" fill="#0F6274"/>
<circle cx="568.711" cy="419.909" r="10" transform="rotate(177 568.711 419.909)" fill="#0F6274"/>
<circle cx="596.511" cy="434.474" r="10" transform="rotate(177 596.511 434.474)" fill="#0F6274"/>
<circle cx="502.276" cy="333.375" r="10" transform="rotate(161 502.276 333.375)" fill="#0F6274"/>
<circle cx="532.689" cy="338.767" r="10" transform="rotate(161 532.689 338.767)" fill="#0F6274"/>
<circle cx="563.241" cy="345.169" r="10" transform="rotate(161 563.241 345.169)" fill="#0F6274"/>
<circle cx="593.668" cy="350.603" r="10" transform="rotate(161 593.668 350.603)" fill="#0F6274"/>
<circle cx="624.406" cy="356.941" r="10" transform="rotate(161 624.406 356.941)" fill="#0F6274"/>
<circle cx="508.767" cy="280.897" r="10" transform="rotate(142 508.767 280.897)" fill="#0F6274"/>
<circle cx="539.278" cy="276.095" r="10" transform="rotate(142 539.278 276.095)" fill="#0F6274"/>
<circle cx="570.25" cy="272.201" r="10" transform="rotate(142 570.25 272.201)" fill="#0F6274"/>
<circle cx="600.788" cy="267.433" r="10" transform="rotate(142 600.788 267.433)" fill="#0F6274"/>
<circle cx="631.915" cy="263.418" r="10" transform="rotate(142 631.915 263.418)" fill="#0F6274"/>
<circle cx="503.802" cy="226.474" r="10" transform="rotate(123 503.802 226.474)" fill="#0F6274"/>
<circle cx="531.087" cy="211.999" r="10" transform="rotate(123 531.087 211.999)" fill="#0F6274"/>
<circle cx="559.104" cy="198.234" r="10" transform="rotate(123 559.104 198.234)" fill="#0F6274"/>
<circle cx="586.426" cy="183.784" r="10" transform="rotate(123 586.426 183.784)" fill="#0F6274"/>
<circle cx="614.55" cy="169.854" r="10" transform="rotate(123 614.55 169.854)" fill="#0F6274"/>
<path d="M273 167V228.923C273 231.236 273.802 233.477 275.269 235.266L318.897 288.445C322.933 293.364 330.476 293.313 334.445 288.339L376.817 235.236C378.23 233.465 379 231.266 379 228.999V167" stroke="#0F6274" stroke-width="25" stroke-linecap="round"/>
<path d="M198 95C200.254 118.939 205.548 132.053 224.05 146.229C230.168 150.917 237.833 153 245.541 153H408.408C416.381 153 424.335 150.806 430.452 145.691C446.656 132.14 451.381 118.697 455 95" stroke="#0F6274" stroke-width="25" stroke-linecap="round"/>
<rect x="38.5" y="12.5" width="589" height="65" rx="32.5" stroke="#0F6274" stroke-width="25"/>
<rect x="263.5" y="300.5" width="125" height="51" rx="13.5" stroke="#0F6274" stroke-width="25"/>
</svg>
